<svg width="512" height="512" viewBox="0 0 512 512" fill="none" xmlns="http://www.w3.org/2000/svg">
  <rect x="66" y="154" width="380" height="250" rx="42" fill="#fffaf0" stroke="#172033" stroke-width="18"/>
  <path d="M164 154L196 108H316L348 154H164Z" fill="#ff6f61" stroke="#172033" stroke-width="18" stroke-linejoin="round"/>
  <circle cx="256" cy="280" r="78" fill="#39c7d4" stroke="#172033" stroke-width="18"/>
  <circle cx="256" cy="280" r="38" fill="#4b7dff" stroke="#172033" stroke-width="14"/>
  <circle cx="362" cy="214" r="22" fill="#ffe35e" stroke="#172033" stroke-width="14"/>
  <path d="M96 214H146" stroke="#172033" stroke-width="16" stroke-linecap="round"/>
  <path d="M408 98L422 128L454 132L430 154L436 186L408 170L380 186L386 154L362 132L394 128L408 98Z" fill="#ffe35e" stroke="#172033" stroke-width="12" stroke-linejoin="round"/>
  <path d="M118 418C150 448 198 464 256 464C314 464 362 448 394 418" stroke="#172033" stroke-width="16" stroke-linecap="round"/>
</svg>
